# xmcd
#
# Track frame offsets: 
#        150
#        20643
#        39630
#        73380
#        99405
#        128025
#        147768
#        171015
#        199273
#        221305
#
# Disc length: 3191 seconds
#
# Revision: 0
# Processed by: cddbd v1.5.2PL0 Copyright (c) Steve Scherf et al.
# Submitted via: ExactAudioCopy v0.99pb4
#
DISCID=910c750a
DTITLE=Various Artist - Bau Tranh Sao 6
DYEAR=1900
DGENRE=Symphony
TTITLE0=Ba Thang Ta Tu - Thanh Son
TTITLE1=Bong Nho Duong Chieu - Truc Phuong
TTITLE2=Sao Chua Thay Hoi Am - Chau Ky
TTITLE3=Tinh Yeu Tra Lai Trang Sao - Le Dinh
TTITLE4=Chuyen Ba Nguoi - Quoc Dung
TTITLE5=Qua Cau Gio Bay - Dan Ca Ba Mien
TTITLE6=Xin Goi Nhau La Co Nhan - Song Ngoc
TTITLE7=Nhung Ngay Xua Than Ai - Pham The My
TTITLE8=Pho Vang Em Roi - Manh Phat
TTITLE9=Duoc Tin Em Lay Chong - Chau Ky
EXTD=
EXTT0=
EXTT1=
EXTT2=
EXTT3=
EXTT4=
EXTT5=
EXTT6=
EXTT7=
EXTT8=
EXTT9=
PLAYORDER=
